<?xml version="1.0" encoding="utf-8"?>
<!-- Generator: Adobe Illustrator 16.0.0, SVG Export Plug-In . SVG Version: 6.00 Build 0)  -->
<!DOCTYPE svg PUBLIC "-//W3C//DTD SVG 1.1//EN" "http://www.w3.org/Graphics/SVG/1.1/DTD/svg11.dtd">
<svg version="1.1" xmlns="http://www.w3.org/2000/svg" xmlns:xlink="http://www.w3.org/1999/xlink" x="0px" y="0px"
	 width="821.815px" height="198.425px" viewBox="0 0 821.815 198.425" enable-background="new 0 0 821.815 198.425"
	 xml:space="preserve">
<g id="white_x5F_white">
	<path fill-rule="evenodd" clip-rule="evenodd" fill="#FFFFFF" d="M59.68,111.967l26.523,26.524L59.68,165.015l-26.525-26.523
		L59.68,111.967z"/>
	<path fill-rule="evenodd" clip-rule="evenodd" fill="#FFFFFF" d="M125.481,111.967l26.523,26.524l-26.523,26.523l-26.525-26.523
		L125.481,111.967z"/>
	<path fill-rule="evenodd" clip-rule="evenodd" fill="#FFFFFF" d="M105.68,0.002H79.481L-0.001,79.483v26.2l26.553,26.555
		l0.212-0.214l0.015-0.036L59.805,98.96l30.654,30.654l-0.002,0.004l2.238,2.238l0.18-0.178l0.006,0.007l32.725-32.726
		l33.031,33.027l-0.018,0.016l0.109,0.111l26.434-26.432v-26.2L105.68,0.002z M19.892,99.214c-3.662,0-6.631-2.968-6.631-6.631
		s2.969-6.632,6.631-6.632c3.663,0,6.631,2.969,6.631,6.632S23.555,99.214,19.892,99.214z"/>
	<path fill-rule="evenodd" clip-rule="evenodd" fill="#FFFFFF" d="M92.579,145.378l26.523,26.524l-26.523,26.524l-26.523-26.524
		L92.579,145.378z"/>
	<polygon display="none" fill-rule="evenodd" clip-rule="evenodd" fill="#FFFFFF" points="105.842,185.166 119.104,171.903 
		92.579,145.378 66.055,171.903 79.319,185.166 	"/>
</g>
<g id="whitetext">
	<g>
		<path fill="#FFFFFF" d="M231.071,35.666h15.145v97.873h51.168v13.709h-66.313V35.666z"/>
		<path fill="#FFFFFF" d="M307.903,35.666h14.346v15.94h-14.346V35.666z M307.903,69.14h14.346v78.107h-14.346V69.14z"/>
		<path fill="#FFFFFF" d="M353.252,143.422c-3.348-3.611-5.021-8.021-5.021-13.229V80.298H334.84l1.275-11.158h12.115V49.853
			l14.346-1.435V69.14h20.563v11.158h-20.563v41.127c0,5.42,0.318,9.141,0.957,11.158c0.637,2.021,1.992,3.321,4.063,3.904
			c2.074,0.586,5.871,0.879,11.398,0.879h3.668l-1.117,11.475h-12.912C361.725,148.841,356.6,147.036,353.252,143.422z"/>
		<path fill="#FFFFFF" d="M406.969,143.422c-3.348-3.611-5.021-8.021-5.021-13.229V80.298h-13.389l1.275-11.158h12.113V49.853
			l14.348-1.435V69.14h20.563v11.158h-20.563v41.127c0,5.42,0.316,9.141,0.957,11.158c0.637,2.021,1.992,3.321,4.063,3.904
			c2.072,0.586,5.871,0.879,11.398,0.879h3.668l-1.119,11.475H422.35C415.442,148.841,410.317,147.036,406.969,143.422z"/>
		<path fill="#FFFFFF" d="M453.833,143.422c-3.242-3.611-4.861-8.073-4.861-13.39V27.696h14.346v94.047
			c0,4.679,0.293,8.079,0.879,10.202c0.58,2.127,1.725,3.562,3.426,4.305c1.699,0.744,4.463,1.117,8.287,1.117l-2.07,11.475h-4.623
			C462.202,148.841,457.073,147.036,453.833,143.422z"/>
		<path fill="#FFFFFF" d="M500.538,143.343c-6.324-3.667-11.133-8.634-14.426-14.905c-3.295-6.27-4.941-13.231-4.941-20.882
			c0-7.332,1.516-14.051,4.543-20.164c3.029-6.11,7.438-10.944,13.23-14.506c5.791-3.559,12.617-5.34,20.484-5.34
			c9.988,0,18.092,2.924,24.309,8.767c6.217,5.847,9.326,13.923,9.326,24.23c0,2.656-0.215,5.208-0.639,7.65h-56.588
			c0.955,10.097,4.037,17.271,9.246,21.519c5.205,4.254,11.9,6.377,20.084,6.377c8.182,0,15.674-1.538,22.477-4.622l1.912,11.318
			c-9.033,4.038-17.748,6.056-26.143,6.056C514.485,148.841,506.86,147.009,500.538,143.343z M538.237,98.312
			c0-5.632-1.596-10.043-4.781-13.231c-3.189-3.188-7.971-4.782-14.348-4.782c-6.164,0-10.998,1.515-14.504,4.543
			c-3.508,3.028-6.006,7.521-7.492,13.471H538.237z"/>
		<path fill="#FFFFFF" d="M558.639,69.14h15.939l21.84,62.327l21.68-62.327h16.1l-29.648,78.107h-16.102L558.639,69.14z"/>
		<path fill="#FFFFFF" d="M668.627,142.305c-8.289-4.781-14.826-11.581-19.607-20.402c-4.783-8.819-7.174-19.021-7.174-30.605
			c0-11.582,2.473-21.731,7.414-30.446c4.939-8.713,11.77-15.463,20.48-20.245c8.715-4.781,18.652-7.173,29.813-7.173
			c5.629,0,11.182,0.585,16.656,1.753c5.471,1.171,10.387,2.71,14.746,4.623l-1.438,13.23c-10.307-3.931-20.139-5.897-29.49-5.897
			c-9.244,0-16.975,1.94-23.191,5.818c-6.217,3.881-10.838,9.141-13.869,15.781c-3.027,6.643-4.541,14.214-4.541,22.715
			c0,13.391,3.586,24.124,10.76,32.2s17.717,12.115,31.641,12.115c2.975,0,6.162-0.24,9.564-0.718
			c3.398-0.478,6.43-1.248,9.086-2.313v-27.735h-17.535V91.298h32.68v49.734c-4.68,2.55-10.283,4.597-16.816,6.137
			c-6.537,1.538-13.631,2.311-21.281,2.311C686.213,149.479,676.915,147.088,668.627,142.305z"/>
		<path fill="#FFFFFF" d="M755.502,35.666h15.145v97.873h51.168v13.709h-66.313V35.666z"/>
	</g>
</g>
</svg>
